<svg width="18.000000" height="20.000000" viewBox="0 0 18 20" fill="none" xmlns="http://www.w3.org/2000/svg" xmlns:xlink="http://www.w3.org/1999/xlink">
	<desc>
			Created with Pixso.
	</desc>
	<defs/>
	<path id="Vector" d="M4.33 11.58C4.03 11.58 3.79 11.48 3.59 11.28C3.39 11.08 3.29 10.83 3.29 10.54C3.29 10.24 3.39 10 3.59 9.79C3.79 9.59 4.03 9.5 4.33 9.5C4.62 9.5 4.87 9.59 5.07 9.79C5.27 10 5.37 10.24 5.37 10.54C5.37 10.83 5.27 11.08 5.07 11.28C4.87 11.48 4.62 11.58 4.33 11.58ZM8.5 11.58C8.2 11.58 7.95 11.48 7.75 11.28C7.55 11.08 7.45 10.83 7.45 10.54C7.45 10.24 7.55 10 7.75 9.79C7.95 9.59 8.2 9.5 8.5 9.5C8.79 9.5 9.04 9.59 9.24 9.79C9.44 10 9.54 10.24 9.54 10.54C9.54 10.83 9.44 11.08 9.24 11.28C9.04 11.48 8.79 11.58 8.5 11.58ZM12.66 11.58C12.37 11.58 12.12 11.48 11.92 11.28C11.72 11.08 11.62 10.83 11.62 10.54C11.62 10.24 11.72 10 11.92 9.79C12.12 9.59 12.37 9.5 12.66 9.5C12.96 9.5 13.2 9.59 13.4 9.79C13.6 10 13.7 10.24 13.7 10.54C13.7 10.83 13.6 11.08 13.4 11.28C13.2 11.48 12.96 11.58 12.66 11.58ZM1.2 19.91C0.63 19.91 0.14 19.71 -0.27 19.3C-0.68 18.89 -0.88 18.4 -0.88 17.83L-0.88 3.25C-0.88 2.67 -0.68 2.18 -0.27 1.77C0.14 1.37 0.63 1.16 1.2 1.16L2.25 1.16L2.25 -0.92L4.33 -0.92L4.33 1.16L12.66 1.16L12.66 -0.92L14.75 -0.92L14.75 1.16L15.79 1.16C16.36 1.16 16.85 1.37 17.26 1.77C17.67 2.18 17.87 2.67 17.87 3.25L17.87 17.83C17.87 18.4 17.67 18.89 17.26 19.3C16.85 19.71 16.36 19.91 15.79 19.91L1.2 19.91ZM1.2 17.83L15.79 17.83L15.79 7.41L1.2 7.41L1.2 17.83Z" fill="#F49B33" fill-opacity="1.000000" fill-rule="nonzero"/>
</svg>
