<svg width="167.000000" height="31.000000" viewBox="0 0 167 31" fill="none" xmlns="http://www.w3.org/2000/svg" xmlns:xlink="http://www.w3.org/1999/xlink">
	<desc>
			Created with Pixso.
	</desc>
	<defs/>
	<path id="TableBooky" d="M33.6 20.68L33.67 20.68C34.75 22.47 36.35 23.37 38.46 23.37Q40.56 23.37 42.1 22.45Q43.06 21.88 43.81 20.96C45.11 19.35 45.76 17.2 45.76 14.53C45.76 12.12 45.18 10.2 44.02 8.77C42.86 7.34 41.25 6.62 39.2 6.62C36.77 6.62 34.93 7.68 33.67 9.81L33.6 9.81L33.6 -0.69L31.04 -0.69L31.04 23L33.6 23L33.6 20.68ZM49.85 23L52.42 23L52.42 -0.69L49.85 -0.69L49.85 23ZM143.57 23L149.5 23L143.35 14.51L149.09 7L143.23 7L138.46 14.39L138.4 14.39L138.4 -0.69L133.46 -0.69L133.46 23L138.4 23L138.4 15.06L138.46 15.06L143.57 23ZM8.71 2.96L15.18 2.96L15.18 0.59L-0.36 0.59L-0.36 2.96L6.09 2.96L6.09 23L8.71 23L8.71 2.96ZM74.31 0.59L74.31 23L82.92 23C85.46 23 87.46 22.39 88.93 21.19Q89.8 20.48 90.33 19.57Q91.14 18.17 91.14 16.31Q91.14 15.15 90.7 14.18Q90.35 13.39 89.71 12.73C88.75 11.75 87.48 11.16 85.89 10.96L85.89 10.9C87.16 10.55 88.2 9.92 89.02 9.01C89.84 8.1 90.25 7.05 90.25 5.84Q90.25 4.52 89.68 3.51Q89.18 2.61 88.23 1.96Q86.21 0.59 82.46 0.59L74.31 0.59ZM79.35 9.62L79.35 4.31L81.25 4.31C83.7 4.31 84.93 5.13 84.93 6.78C84.93 7.66 84.63 8.36 84.03 8.86C83.44 9.37 82.61 9.62 81.57 9.62L79.35 9.62ZM95.67 21.14C97.2 22.64 99.3 23.39 101.96 23.39C104.67 23.39 106.81 22.61 108.36 21.07C109.92 19.53 110.7 17.43 110.7 14.78C110.7 12.32 109.94 10.34 108.43 8.85C106.92 7.35 104.84 6.6 102.18 6.6C99.48 6.6 97.34 7.35 95.76 8.85C94.18 10.34 93.39 12.41 93.39 15.06C93.39 17.62 94.15 19.65 95.67 21.14ZM115.24 21.14C116.76 22.64 118.86 23.39 121.53 23.39C124.24 23.39 126.37 22.61 127.93 21.07C129.48 19.53 130.26 17.43 130.26 14.78C130.26 12.32 129.5 10.34 128 8.85C126.49 7.35 124.4 6.6 121.75 6.6C119.05 6.6 116.91 7.35 115.32 8.85C113.74 10.34 112.95 12.41 112.95 15.06C112.95 17.62 113.71 19.65 115.24 21.14ZM23.65 23L26.21 23L26.21 12.59C26.21 8.61 24.33 6.62 20.57 6.62Q18.11 6.62 16.11 7.58Q15.61 7.82 15.14 8.12L15.14 10.75Q16.56 9.54 18.2 9.07Q19.23 8.78 20.35 8.78Q21.66 8.78 22.45 9.41Q23.65 10.39 23.65 12.85L18.85 13.53C15.33 14.02 13.57 15.76 13.57 18.75Q13.57 20.19 14.22 21.24Q14.51 21.71 14.92 22.1Q15.02 22.2 15.13 22.28Q16.45 23.37 18.67 23.37C20.83 23.37 22.47 22.41 23.59 20.5L23.65 20.5L23.65 23ZM59.17 15.64L70.46 15.64L70.46 14.29C70.46 11.89 69.89 10.01 68.75 8.65C67.6 7.3 65.98 6.62 63.89 6.62C61.79 6.62 60.04 7.4 58.63 8.97Q58.22 9.42 57.89 9.93Q56.51 12.04 56.51 15.06C56.51 17.69 57.16 19.74 58.45 21.19C59.74 22.64 61.52 23.37 63.78 23.37C66.09 23.37 67.95 22.86 69.35 21.84L69.35 19.43Q67.89 20.59 66.23 20.99Q65.34 21.21 64.39 21.21C62.78 21.21 61.52 20.73 60.6 19.76C59.69 18.79 59.21 17.42 59.17 15.64ZM160.09 24.28L166.59 7L161.7 7L158.68 16.76Q158.31 17.96 158.17 18.87L158.1 18.87C158 18.05 157.85 17.33 157.67 16.73L154.68 7L149.21 7L155.71 22.96L154.87 24.95C154.37 26.15 153.49 26.75 152.21 26.75C151.44 26.75 150.73 26.55 150.07 26.17L150.07 30.1C150.84 30.38 151.83 30.51 153.03 30.51C156.17 30.51 158.53 28.43 160.09 24.28ZM33.6 16.46L33.6 14.23Q33.6 12.47 34.37 11.16Q34.62 10.72 34.96 10.33C35.87 9.29 37.07 8.78 38.56 8.78C39.96 8.78 41.08 9.28 41.9 10.29C42.72 11.3 43.14 12.7 43.14 14.48C43.14 16.59 42.7 18.25 41.82 19.43C40.94 20.62 39.72 21.21 38.17 21.21C36.84 21.21 35.75 20.75 34.89 19.83C34.03 18.91 33.6 17.79 33.6 16.46ZM66.77 10.01C67.47 10.83 67.83 11.98 67.84 13.46L59.2 13.46C59.4 12.07 59.92 10.94 60.76 10.07C61.6 9.21 62.63 8.78 63.84 8.78C65.09 8.78 66.07 9.19 66.77 10.01ZM99.37 11.59C100.02 10.79 100.92 10.39 102.09 10.39C104.47 10.39 105.67 11.88 105.67 14.87C105.67 18.03 104.49 19.6 102.12 19.6C99.64 19.6 98.4 18.07 98.4 15C98.4 13.53 98.72 12.39 99.37 11.59ZM118.93 11.59C119.58 10.79 120.49 10.39 121.65 10.39C124.04 10.39 125.23 11.88 125.23 14.87C125.23 18.03 124.05 19.6 121.68 19.6C119.2 19.6 117.96 18.07 117.96 15C117.96 13.53 118.29 12.39 118.93 11.59ZM79.35 19.28L79.35 13.37L82.12 13.37C83.29 13.37 84.2 13.63 84.85 14.14C85.5 14.65 85.82 15.35 85.82 16.25C85.82 17.18 85.49 17.92 84.83 18.46C84.17 19.01 83.26 19.28 82.09 19.28L79.35 19.28ZM19.79 15.43L23.65 14.9L23.65 16.5Q23.65 17.95 23.02 19.04Q22.77 19.49 22.41 19.88C21.58 20.77 20.53 21.21 19.26 21.21Q18.01 21.21 17.21 20.61Q17.12 20.55 17.03 20.47C16.48 19.98 16.2 19.34 16.2 18.56C16.2 17.48 16.5 16.74 17.1 16.32C17.71 15.89 18.6 15.6 19.79 15.43Z" fill="#F49B33" fill-opacity="1.000000" fill-rule="evenodd"/>
</svg>
