<svg width="20.000000" height="20.000000" viewBox="0 0 20 20" fill="none" xmlns="http://www.w3.org/2000/svg" xmlns:xlink="http://www.w3.org/1999/xlink">
	<desc>
			Created with Pixso.
	</desc>
	<defs/>
	<rect id="pajamas:hamburger" width="20.000000" height="20.000000" fill="#FFFFFF" fill-opacity="0"/>
	<path id="Vector" d="M0 4.68C0 4.43 0.09 4.2 0.27 4.02C0.45 3.84 0.68 3.75 0.93 3.75L19.06 3.75C19.31 3.75 19.54 3.84 19.72 4.02C19.9 4.2 20 4.43 20 4.68C20 4.93 19.9 5.17 19.72 5.34C19.54 5.52 19.31 5.62 19.06 5.62L0.93 5.62C0.68 5.62 0.45 5.52 0.27 5.34C0.09 5.17 0 4.93 0 4.68L0 4.68ZM0 10C0 9.75 0.09 9.51 0.27 9.33C0.45 9.16 0.68 9.06 0.93 9.06L19.06 9.06C19.31 9.06 19.54 9.16 19.72 9.33C19.9 9.51 20 9.75 20 10C20 10.24 19.9 10.48 19.72 10.66C19.54 10.83 19.31 10.93 19.06 10.93L0.93 10.93C0.68 10.93 0.45 10.83 0.27 10.66C0.09 10.48 0 10.24 0 10L0 10ZM0.93 14.37C0.68 14.37 0.45 14.47 0.27 14.65C0.09 14.82 0 15.06 0 15.31C0 15.56 0.09 15.79 0.27 15.97C0.45 16.15 0.68 16.25 0.93 16.25L19.06 16.25C19.31 16.25 19.54 16.15 19.72 15.97C19.9 15.79 20 15.56 20 15.31C20 15.06 19.9 14.82 19.72 14.65C19.54 14.47 19.31 14.37 19.06 14.37L0.93 14.37Z" fill="#2B2B2B" fill-opacity="1.000000" fill-rule="evenodd"/>
</svg>
