<svg width="200.000000" height="28.000000" viewBox="0 0 200 28" fill="none" xmlns="http://www.w3.org/2000/svg" xmlns:xlink="http://www.w3.org/1999/xlink">
	<desc>
			Created with Pixso.
	</desc>
	<defs/>
	<path id="Welcome to TableBooky" d="M162.38 3.1L162.38 -0.56Q161.66 -0.15 160.34 0.18Q156.34 0.8 155.35 1.01Q154.35 1.22 153.32 1.66Q152.28 2.09 151.29 3.03Q150.31 3.96 149.63 5.36Q148.96 6.76 148.62 8.58Q148.28 10.41 148.28 12.66Q148.28 17.38 150.32 19.87Q150.82 20.48 151.43 20.94Q153.32 22.36 156.27 22.36Q159.38 22.36 161.42 20.88Q161.82 20.58 162.19 20.23Q162.72 19.7 163.13 19.09Q164.37 17.22 164.37 14.52Q164.37 11.46 162.87 9.61Q162.73 9.44 162.59 9.29Q162.24 8.92 161.85 8.62Q160.19 7.39 157.62 7.39Q155.83 7.39 154.51 8.17Q153.75 8.61 153.15 9.31L153.09 9.31Q153.24 7.86 153.62 6.85Q154.01 5.84 154.62 5.31Q155.23 4.78 156.56 4.48Q157.21 4.33 160.5 3.82Q161.67 3.64 162.38 3.1ZM130.44 21.08Q132.69 22.36 135.67 22.36Q138.73 22.36 141.03 21.04Q142.2 20.36 143.18 19.33Q143.77 18.7 144.24 18Q146.06 15.28 146.06 11.35Q146.06 7.46 144.26 4.8Q143.82 4.16 143.28 3.58Q142.35 2.6 141.23 1.94Q139 0.64 136.01 0.64Q132.73 0.64 130.35 2.09Q129.26 2.75 128.36 3.71Q127.77 4.35 127.29 5.07Q125.48 7.82 125.48 11.77Q125.48 15.29 127.06 17.82Q127.6 18.68 128.32 19.42Q129.28 20.42 130.44 21.08ZM-0.25 0.99L-0.25 22L5.99 22Q8.88 22 10.66 20.59Q10.83 20.46 10.98 20.31Q11.48 19.86 11.84 19.31Q12.82 17.84 12.82 15.73C12.82 13.86 12.23 12.42 11.07 11.41Q9.33 9.9 6.19 9.9L2.21 9.9L2.21 3.22L10.97 3.22L10.97 0.99L-0.25 0.99ZM133.4 5.3Q134.48 4.71 135.88 4.71Q137.25 4.71 138.3 5.3Q139.09 5.74 139.69 6.53Q141.08 8.34 141.08 11.61Q141.08 14.74 139.64 16.51Q139.06 17.22 138.32 17.64Q137.22 18.27 135.76 18.27Q134.52 18.27 133.53 17.78Q132.62 17.33 131.92 16.46Q130.46 14.64 130.46 11.52Q130.46 8.45 131.92 6.58Q132.56 5.76 133.4 5.3ZM171.05 15.81L180.83 15.81L180.83 13.87Q180.83 10.85 179.38 8.98Q179.22 8.77 179.04 8.58Q178.7 8.21 178.31 7.91Q176.63 6.63 173.96 6.63Q172.23 6.63 170.8 7.28Q169.61 7.82 168.63 8.81Q168.23 9.21 167.91 9.67Q166.46 11.68 166.46 14.73Q166.46 17.88 168 19.81Q168.22 20.09 168.47 20.35Q168.71 20.59 168.97 20.8Q170.91 22.36 174.11 22.36Q177.43 22.36 179.52 21.25L179.52 17.91Q179.25 18.08 178.97 18.22Q177.29 19.08 175.16 19.08Q172.87 19.08 171.85 17.94Q171.14 17.15 171.05 15.81ZM51.28 15.1L61.87 15.1L61.87 13.84Q61.87 10.45 60.26 8.55Q59.82 8.03 59.28 7.65Q57.84 6.64 55.71 6.64Q54.27 6.64 53.06 7.17Q51.79 7.72 50.78 8.85Q50.39 9.27 50.09 9.74Q48.79 11.73 48.79 14.55Q48.79 18.26 50.61 20.3Q51.12 20.88 51.74 21.29Q53.32 22.35 55.6 22.35Q58.86 22.35 60.83 20.91L60.83 18.66Q59.46 19.74 57.91 20.12Q57.07 20.33 56.17 20.33Q54.41 20.33 53.24 19.49Q52.91 19.26 52.63 18.96Q52.62 18.95 52.6 18.93Q51.34 17.57 51.28 15.1ZM111.68 22L114.08 22L114.08 12.24Q114.08 9.28 112.6 7.89Q111.29 6.64 108.79 6.64Q106.48 6.64 104.61 7.54Q104.14 7.77 103.69 8.05L103.69 10.51Q105.03 9.38 106.56 8.94Q107.54 8.66 108.59 8.66Q109.81 8.66 110.55 9.26Q111.68 10.18 111.68 12.49L107.18 13.12Q104.21 13.53 103.03 15.21Q102.23 16.33 102.23 18.01Q102.23 19.37 102.83 20.35Q103.1 20.79 103.5 21.16Q103.59 21.25 103.69 21.33Q104.93 22.35 107.01 22.35Q108.46 22.35 109.57 21.73Q110.8 21.06 111.62 19.65L111.68 19.65L111.68 22ZM26.98 22L29.15 22L29.15 7L26.66 7L19.54 17.37Q18.95 18.39 18.78 18.82L18.78 7L16.58 7L16.58 22L19.07 22L26 11.8Q26.66 10.66 26.98 10.03L26.98 22ZM42.57 22L44.95 22L44.95 7L37.07 7Q36.19 19.65 33.19 20.17Q33.06 20.19 32.93 20.19Q32.52 20.19 32.15 20.07Q31.98 20.01 31.81 19.93L31.81 22Q32.36 22.2 33.1 22.2Q33.73 22.2 34.29 22.01Q35.94 21.45 37.02 19.26Q38.48 16.31 39.08 9.03L42.57 9.03L42.57 22ZM70.43 9.05L74.92 9.05L74.92 7L63.51 7L63.51 9.05L68.03 9.05L68.03 22L70.43 22L70.43 9.05ZM96.08 22L98.48 22L98.48 7L96.08 7L96.08 13.15L88.43 13.15L88.43 7L86.03 7L86.03 22L88.43 22L88.43 15.18L96.08 15.18L96.08 22ZM195.72 27.46L199.5 27.46L199.5 18.73L197.12 18.73L197.12 7L186.59 7Q186.42 13.35 183.6 18.13Q183.42 18.43 183.24 18.73L181.9 18.73L181.9 27.46L185.62 27.46L185.62 22L195.72 22L195.72 27.46ZM58.41 9.82Q59.4 10.98 59.41 13.06L51.31 13.06Q51.56 11.34 52.5 10.19Q52.63 10.03 52.78 9.88Q53.37 9.27 54.09 8.97Q54.81 8.66 55.66 8.66Q56.89 8.66 57.75 9.23Q58.11 9.48 58.41 9.82ZM175.59 10.25Q176.54 11.02 176.54 12.97L171.02 12.97Q171.17 11.82 171.76 10.98Q171.88 10.82 172.01 10.67Q172.53 10.08 173.18 9.87Q173.54 9.75 173.93 9.75Q174.97 9.75 175.59 10.25ZM192.49 10.23L192.49 18.73L187.73 18.73Q187.76 18.67 187.79 18.62Q189.86 14.91 190.19 10.23L192.49 10.23ZM152.99 13.92Q152.99 12.9 153.02 12.55Q153.46 11.77 154.36 11.24Q154.91 10.92 155.51 10.79Q155.88 10.72 156.27 10.72Q157.27 10.72 158 11.16Q158.41 11.4 158.74 11.78Q159.65 12.84 159.65 14.73Q159.65 16.59 158.74 17.7Q158.3 18.25 157.73 18.52Q157.13 18.82 156.39 18.82Q155.59 18.82 154.97 18.49Q154.34 18.16 153.89 17.49Q152.99 16.16 152.99 13.92ZM2.21 19.77L2.21 12.12L5.67 12.12Q8.38 12.12 9.48 13.45Q10.22 14.36 10.22 15.87Q10.22 17.21 9.59 18.12Q9.36 18.46 9.04 18.74Q7.85 19.77 5.67 19.77L2.21 19.77ZM108.06 14.91L111.68 14.41L111.68 15.9Q111.68 17.26 111.09 18.29Q110.85 18.71 110.51 19.07Q110.01 19.61 109.39 19.92Q108.58 20.33 107.56 20.33Q106.39 20.33 105.64 19.76Q105.55 19.7 105.47 19.63Q105.14 19.33 104.95 18.96Q104.69 18.46 104.69 17.83Q104.69 16.5 105.36 15.88Q105.44 15.8 105.54 15.73Q106.39 15.14 108.06 14.91Z" fill="#F49B33" fill-opacity="1.000000" fill-rule="evenodd"/>
</svg>
