<svg width="324.000000" height="30.000000" viewBox="0 0 324 30" fill="none" xmlns="http://www.w3.org/2000/svg" xmlns:xlink="http://www.w3.org/1999/xlink">
    <desc>
        Created with Pixso.
    </desc>
    <defs/>
    <path id="Welcome to TableBooky" d="M198.39 19.83L198.45 19.83Q199.19 21.06 200.29 21.69Q201.43 22.35 202.95 22.35Q204.91 22.35 206.36 21.48Q207.25 20.95 207.96 20.08Q209.79 17.82 209.79 14.06Q209.79 10.67 208.15 8.66Q207.57 7.94 206.83 7.47Q205.49 6.64 203.63 6.64Q201.99 6.64 200.73 7.34Q199.37 8.08 198.45 9.63L198.39 9.63L198.39 -0.21L195.99 -0.21L195.99 22L198.39 22L198.39 19.83ZM213.62 22L216.03 22L216.03 -0.21L213.62 -0.21L213.62 22ZM301.49 22L307.04 22L301.28 14.04L306.66 7L301.16 7L296.7 13.92L296.64 13.92L296.64 -0.21L292.01 -0.21L292.01 22L296.64 22L296.64 14.55L296.7 14.55L301.49 22ZM175.06 3.22L181.12 3.22L181.12 0.99L166.54 0.99L166.54 3.22L172.59 3.22L172.59 22L175.06 22L175.06 3.22ZM236.55 0.99L236.55 22L244.62 22Q248.19 22 250.26 20.3Q251.08 19.64 251.57 18.78Q252.33 17.47 252.33 15.73Q252.33 14.64 251.92 13.73Q251.59 12.99 250.99 12.37Q250.78 12.16 250.56 11.98Q249.31 10.95 247.4 10.72L247.4 10.66Q248.74 10.29 249.71 9.48Q250.05 9.21 250.34 8.88Q250.94 8.22 251.23 7.45Q251.49 6.73 251.49 5.91Q251.49 4.67 250.96 3.73Q250.49 2.89 249.6 2.28Q247.71 0.99 244.2 0.99L236.55 0.99ZM241.28 9.46L241.28 4.48L243.05 4.48Q245.44 4.48 246.18 5.58Q246.51 6.07 246.51 6.79Q246.51 7.62 246.13 8.22Q245.95 8.51 245.67 8.75Q244.83 9.46 243.36 9.46L241.28 9.46ZM257.21 20.81Q259.25 22.36 262.48 22.36Q265.68 22.36 267.74 20.82Q268.13 20.54 268.48 20.19Q268.9 19.78 269.24 19.3Q270.67 17.31 270.67 14.29Q270.67 11.74 269.51 9.93Q269.1 9.28 268.54 8.73Q268.24 8.43 267.91 8.18Q265.89 6.63 262.68 6.63Q259.4 6.63 257.29 8.2Q256.96 8.45 256.66 8.73Q256.2 9.16 255.84 9.66Q254.43 11.6 254.43 14.55Q254.43 17.4 255.77 19.3Q256.13 19.82 256.58 20.26Q256.88 20.55 257.21 20.81ZM275.55 20.81Q277.59 22.36 280.82 22.36Q284.02 22.36 286.08 20.82Q286.47 20.54 286.82 20.19Q287.24 19.78 287.58 19.3Q289.01 17.31 289.01 14.29Q289.01 11.74 287.85 9.93Q287.44 9.28 286.88 8.73Q286.58 8.43 286.25 8.18Q284.23 6.63 281.02 6.63Q277.74 6.63 275.63 8.2Q275.3 8.45 275 8.73Q274.54 9.16 274.18 9.66Q272.77 11.6 272.77 14.55Q272.77 17.4 274.11 19.3Q274.47 19.82 274.92 20.26Q275.22 20.55 275.55 20.81ZM189.06 22L191.46 22L191.46 12.24Q191.46 9.28 189.99 7.89Q188.67 6.64 186.17 6.64Q183.87 6.64 181.99 7.54Q181.52 7.77 181.08 8.05L181.08 10.51Q182.41 9.38 183.95 8.94Q184.92 8.66 185.97 8.66Q187.19 8.66 187.93 9.26Q189.06 10.18 189.06 12.49L184.56 13.12Q181.6 13.53 180.41 15.21Q179.61 16.33 179.61 18.01Q179.61 19.37 180.21 20.35Q180.49 20.79 180.88 21.16Q180.97 21.25 181.07 21.33Q182.31 22.35 184.39 22.35Q185.84 22.35 186.96 21.73Q188.18 21.06 189 19.65L189.06 19.65L189.06 22ZM222.35 15.1L232.95 15.1L232.95 13.84Q232.95 10.45 231.33 8.55Q230.89 8.03 230.35 7.65Q228.92 6.64 226.78 6.64Q225.34 6.64 224.13 7.17Q222.86 7.72 221.85 8.85Q221.47 9.27 221.16 9.74Q219.86 11.73 219.86 14.55Q219.86 18.26 221.68 20.3Q222.19 20.88 222.81 21.29Q224.39 22.35 226.68 22.35Q229.93 22.35 231.91 20.91L231.91 18.66Q230.53 19.74 228.98 20.12Q228.14 20.33 227.25 20.33Q225.48 20.33 224.31 19.49Q223.98 19.26 223.7 18.96Q223.69 18.95 223.68 18.93Q222.41 17.57 222.35 15.1ZM316.97 23.2L323.06 7L318.48 7L315.65 16.15Q315.3 17.28 315.17 18.13L315.11 18.13Q314.96 16.97 314.7 16.12L311.9 7L306.77 7L312.87 21.97L312.08 23.83Q311.71 24.7 311.06 25.12Q310.45 25.51 309.59 25.51Q308.99 25.51 308.45 25.35Q308 25.21 307.58 24.97L307.58 28.66Q308.66 29.04 310.35 29.04Q311.46 29.04 312.43 28.67Q315.32 27.57 316.97 23.2ZM198.39 15.87L198.39 13.78Q198.39 12.13 199.1 10.9Q199.34 10.49 199.66 10.12Q200.16 9.56 200.77 9.21Q201.75 8.66 203.03 8.66Q204.23 8.66 205.12 9.18Q205.71 9.52 206.17 10.09Q207.33 11.51 207.33 14.01Q207.33 16.99 206.09 18.66Q205.54 19.39 204.82 19.8Q203.89 20.33 202.67 20.33Q201.6 20.33 200.74 19.9Q200.11 19.58 199.6 19.03Q199.1 18.5 198.81 17.87Q198.39 16.97 198.39 15.87ZM229.48 9.82Q230.47 10.98 230.48 13.06L222.38 13.06Q222.63 11.34 223.57 10.19Q223.7 10.03 223.85 9.88Q224.44 9.27 225.16 8.97Q225.88 8.66 226.73 8.66Q227.97 8.66 228.82 9.23Q229.18 9.48 229.48 9.82ZM260.74 10.67Q261.5 10.17 262.59 10.17Q263.9 10.17 264.7 10.81Q265.95 11.81 265.95 14.38Q265.95 17.22 264.58 18.24Q263.82 18.82 262.62 18.82Q261.25 18.82 260.42 18.14Q259.14 17.11 259.14 14.5Q259.14 12.43 260.04 11.3Q260.35 10.92 260.74 10.67ZM279.08 10.67Q279.84 10.17 280.93 10.17Q282.24 10.17 283.04 10.81Q284.29 11.81 284.29 14.38Q284.29 17.22 282.92 18.24Q282.16 18.82 280.96 18.82Q279.59 18.82 278.76 18.14Q277.48 17.11 277.48 14.5Q277.48 12.43 278.39 11.3Q278.69 10.92 279.08 10.67ZM241.28 18.51L241.28 12.97L243.87 12.97Q245.51 12.97 246.43 13.69Q246.79 13.97 247.01 14.34Q247.35 14.91 247.35 15.67Q247.35 16.49 246.98 17.1Q246.76 17.46 246.41 17.75Q245.48 18.51 243.84 18.51L241.28 18.51ZM185.44 14.91L189.06 14.41L189.06 15.9Q189.06 17.26 188.47 18.29Q188.23 18.71 187.89 19.07Q187.39 19.61 186.77 19.92Q185.96 20.33 184.94 20.33Q183.77 20.33 183.02 19.76Q182.93 19.7 182.86 19.63Q182.52 19.33 182.33 18.96Q182.07 18.46 182.07 17.83Q182.07 16.5 182.74 15.88Q182.82 15.8 182.92 15.73Q183.77 15.14 185.44 14.91Z" fill="#F49B33" fill-opacity="1.000000" fill-rule="evenodd"/>
    <path id="Welcome to TableBooky" d="M43.97 22L46.37 22L46.37 -0.21L43.97 -0.21L43.97 22ZM20.72 22L26.65 0.99L23.99 0.99L19.69 17.16Q19.36 18.42 19.3 19.18L19.24 19.18Q19.12 18.05 18.89 17.22L14.43 0.99L12.08 0.99L7.43 17.1Q7.05 18.44 6.98 19.21L6.91 19.21Q6.83 18.11 6.55 17.1L2.09 0.99L-0.62 0.99L5.53 22L8.38 22L12.74 6.61Q13.03 5.59 13.12 4.5L13.17 4.5Q13.23 5.66 13.51 6.64L17.83 22L20.72 22ZM137.13 22.32Q138.52 22.32 139.37 21.85L139.37 19.8Q139.19 19.93 139 20.03Q138.47 20.3 137.8 20.3Q136.71 20.3 136.19 19.75Q136.15 19.7 136.1 19.65Q135.59 19.01 135.59 17.5L135.59 9.05L139.37 9.05L139.37 7L135.59 7L135.59 2.56L133.19 3.33L133.19 7L130.61 7L130.61 9.05L133.19 9.05L133.19 17.92Q133.19 20.36 134.4 21.44Q135.37 22.32 137.13 22.32ZM29.74 15.1L40.33 15.1L40.33 13.84Q40.33 10.45 38.72 8.55Q38.28 8.03 37.74 7.65Q36.3 6.64 34.17 6.64Q32.73 6.64 31.52 7.17Q30.25 7.72 29.24 8.85Q28.85 9.27 28.55 9.74Q27.25 11.73 27.25 14.55Q27.25 18.26 29.07 20.3Q29.58 20.88 30.2 21.29Q31.78 22.35 34.06 22.35Q37.32 22.35 39.29 20.91L39.29 18.66Q37.92 19.74 36.37 20.12Q35.53 20.33 34.63 20.33Q32.87 20.33 31.7 19.49Q31.37 19.26 31.09 18.96Q31.08 18.95 31.06 18.93Q29.8 17.57 29.74 15.1ZM57.35 22.35Q59.73 22.35 61.46 21.31L61.46 19.02Q60.18 19.98 58.78 20.24Q58.28 20.33 57.76 20.33Q56.17 20.33 55.02 19.61Q54.49 19.28 54.05 18.8Q53.95 18.7 53.86 18.58Q52.67 17.09 52.67 14.64Q52.67 12.35 53.75 10.81Q53.93 10.55 54.14 10.31Q54.79 9.59 55.6 9.18Q56.62 8.66 57.91 8.66Q58.51 8.66 59.08 8.78Q60.34 9.03 61.49 9.84L61.49 7.38Q59.98 6.64 58 6.64Q55.48 6.64 53.67 7.78Q52.94 8.24 52.33 8.89Q51.93 9.31 51.61 9.78Q50.21 11.83 50.21 14.85Q50.21 17.37 51.34 19.19Q51.7 19.76 52.18 20.26Q52.82 20.94 53.59 21.4Q55.19 22.35 57.35 22.35ZM67.28 21.27Q68.97 22.35 71.36 22.35Q73.81 22.35 75.54 21.23Q76.23 20.8 76.8 20.19Q77.14 19.82 77.42 19.42Q78.83 17.42 78.83 14.44Q78.83 10.92 77.1 8.88Q77.02 8.79 76.95 8.71Q76.51 8.23 75.99 7.86Q74.28 6.64 71.71 6.64Q69 6.64 67.15 7.91Q66.6 8.28 66.13 8.77Q65.91 8.99 65.71 9.24Q64.06 11.3 64.06 14.67Q64.06 17.51 65.39 19.43Q65.69 19.86 66.05 20.24Q66.61 20.84 67.28 21.27ZM101.56 22L103.97 22L103.97 12.75Q103.97 9.07 102.16 7.6Q100.98 6.64 99.01 6.64Q97.56 6.64 96.42 7.25Q94.97 8.01 94.03 9.75Q93.8 8.99 93.35 8.38Q92.98 7.89 92.47 7.5Q92.1 7.23 91.7 7.04Q90.84 6.64 89.79 6.64Q88.35 6.64 87.24 7.24Q85.98 7.92 85.13 9.37L85.07 9.37L85.07 7L82.67 7L82.67 22L85.07 22L85.07 13.44Q85.07 11.32 86.09 9.99Q86.68 9.23 87.46 8.91Q88.03 8.66 88.7 8.66Q89.98 8.66 90.77 9.28Q92.12 10.32 92.12 13.09L92.12 22L94.52 22L94.52 13.44Q94.52 11.98 95.11 10.83Q95.32 10.43 95.59 10.07Q96.32 9.12 97.26 8.81Q97.71 8.66 98.21 8.66Q99.69 8.66 100.47 9.4Q100.65 9.57 100.79 9.78Q101.56 10.89 101.56 13.38L101.56 22ZM109.97 15.1L120.56 15.1L120.56 13.84Q120.56 10.45 118.95 8.55Q118.51 8.03 117.97 7.65Q116.53 6.64 114.4 6.64Q112.96 6.64 111.75 7.17Q110.48 7.72 109.47 8.85Q109.08 9.27 108.78 9.74Q107.48 11.73 107.48 14.55Q107.48 18.26 109.3 20.3Q109.81 20.88 110.43 21.29Q112.01 22.35 114.29 22.35Q117.55 22.35 119.52 20.91L119.52 18.66Q118.15 19.74 116.6 20.12Q115.76 20.33 114.86 20.33Q113.1 20.33 111.93 19.49Q111.6 19.26 111.32 18.96Q111.31 18.95 111.29 18.93Q110.03 17.57 109.97 15.1ZM144.77 21.27Q146.46 22.35 148.85 22.35Q151.3 22.35 153.03 21.23Q153.72 20.8 154.29 20.19Q154.63 19.82 154.91 19.42Q156.32 17.42 156.32 14.44Q156.32 10.92 154.59 8.88Q154.51 8.79 154.44 8.71Q154 8.23 153.48 7.86Q151.78 6.64 149.2 6.64Q146.49 6.64 144.64 7.91Q144.09 8.28 143.62 8.77Q143.4 8.99 143.2 9.24Q141.55 11.3 141.55 14.67Q141.55 17.51 142.88 19.43Q143.18 19.86 143.54 20.24Q144.1 20.84 144.77 21.27ZM36.87 9.82Q37.86 10.98 37.87 13.06L29.77 13.06Q30.02 11.34 30.96 10.19Q31.09 10.03 31.24 9.88Q31.83 9.27 32.55 8.97Q33.27 8.66 34.12 8.66Q35.35 8.66 36.21 9.23Q36.57 9.48 36.87 9.82ZM68.92 9.34Q70.02 8.66 71.53 8.66Q73.21 8.66 74.33 9.46Q74.77 9.76 75.12 10.19Q76.37 11.71 76.37 14.52Q76.37 17.31 75.12 18.82Q74.78 19.22 74.36 19.52Q73.23 20.33 71.53 20.33Q70.04 20.33 68.93 19.66Q68.36 19.32 67.89 18.79Q67.83 18.73 67.78 18.67Q66.52 17.15 66.52 14.58Q66.52 11.81 67.87 10.24Q68.34 9.7 68.92 9.34ZM117.1 9.82Q118.09 10.98 118.1 13.06L110 13.06Q110.25 11.34 111.19 10.19Q111.32 10.03 111.47 9.88Q112.06 9.27 112.78 8.97Q113.5 8.66 114.35 8.66Q115.58 8.66 116.44 9.23Q116.8 9.48 117.1 9.82ZM146.41 9.34Q147.51 8.66 149.02 8.66Q150.7 8.66 151.82 9.46Q152.26 9.76 152.61 10.19Q153.86 11.71 153.86 14.52Q153.86 17.31 152.61 18.82Q152.27 19.22 151.85 19.52Q150.72 20.33 149.02 20.33Q147.53 20.33 146.42 19.66Q145.85 19.32 145.38 18.79Q145.32 18.73 145.27 18.67Q144.02 17.15 144.02 14.58Q144.02 11.81 145.36 10.24Q145.83 9.7 146.41 9.34Z" fill="#2B2B2B" fill-opacity="1.000000" fill-rule="evenodd"/>
    <path id="Welcome to TableBooky" d="" fill="#FFFFFF" fill-opacity="1.000000" fill-rule="evenodd"/>
</svg>
