<svg width="11.000000" height="17.000000" viewBox="0 0 11 17" fill="none" xmlns="http://www.w3.org/2000/svg" xmlns:xlink="http://www.w3.org/1999/xlink">
	<desc>
			Created with Pixso.
	</desc>
	<defs/>
	<path id="Vector" d="M10 4.66C10 1.9 7.75 -0.34 5 -0.34C2.24 -0.34 0 1.9 0 4.66C0 8.41 5 13.83 5 13.83C5 13.83 10 8.41 10 4.66ZM3.33 4.66C3.33 3.75 4.08 3 5 3C5.91 3 6.66 3.75 6.66 4.66C6.66 5.1 6.49 5.53 6.17 5.84C5.86 6.15 5.44 6.33 5 6.33C4.55 6.33 4.13 6.15 3.82 5.84C3.5 5.53 3.33 5.1 3.33 4.66ZM-0.84 14.66L-0.84 16.33L10.83 16.33L10.83 14.66L-0.84 14.66Z" fill="#F49B33" fill-opacity="1.000000" fill-rule="nonzero"/>
</svg>
