<svg width="20.000000" height="15.000000" viewBox="0 0 20 15" fill="none" xmlns="http://www.w3.org/2000/svg" xmlns:xlink="http://www.w3.org/1999/xlink">
	<desc>
			Created with Pixso.
	</desc>
	<defs/>
	<path id="Vector" d="M13.66 12.7L13.66 14.79L-0.92 14.79L-0.92 12.7C-0.92 12.7 -0.92 8.54 6.37 8.54C13.66 8.54 13.66 12.7 13.66 12.7ZM10.02 2.81C10.02 2.09 9.8 1.38 9.4 0.78C9 0.18 8.43 -0.29 7.77 -0.56C7.1 -0.84 6.37 -0.91 5.66 -0.77C4.95 -0.63 4.3 -0.28 3.79 0.23C3.28 0.74 2.93 1.39 2.79 2.1C2.65 2.8 2.73 3.54 3 4.2C3.28 4.87 3.75 5.44 4.34 5.84C4.94 6.24 5.65 6.45 6.37 6.45C7.34 6.45 8.26 6.07 8.95 5.39C9.63 4.7 10.02 3.77 10.02 2.81ZM13.6 8.54C14.24 9.03 14.76 9.66 15.13 10.38C15.51 11.1 15.71 11.89 15.75 12.7L15.75 14.79L19.91 14.79L19.91 12.7C19.91 12.7 19.91 8.92 13.6 8.54ZM12.62 -0.84C11.9 -0.84 11.2 -0.63 10.61 -0.22C11.24 0.66 11.58 1.72 11.58 2.81C11.58 3.89 11.24 4.95 10.61 5.84C11.2 6.24 11.9 6.46 12.62 6.45C13.59 6.45 14.51 6.07 15.2 5.39C15.88 4.7 16.27 3.77 16.27 2.81C16.27 1.84 15.88 0.91 15.2 0.23C14.51 -0.45 13.59 -0.84 12.62 -0.84Z" fill="#F49B33" fill-opacity="1.000000" fill-rule="nonzero"/>
</svg>
