<svg width="20.000000" height="16.000000" viewBox="0 0 20 16" fill="none" xmlns="http://www.w3.org/2000/svg" xmlns:xlink="http://www.w3.org/1999/xlink">
	<desc>
			Created with Pixso.
	</desc>
	<defs/>
	<path id="Vector" d="M3.25 15.83L4.81 11.92C4.96 11.52 5.22 11.21 5.56 10.97C5.91 10.74 6.3 10.62 6.73 10.62L8.45 10.62L8.45 6.43C5.8 6.34 3.57 5.95 1.77 5.25C-0.02 4.56 -0.92 3.75 -0.92 2.81C-0.92 1.8 0.09 0.94 2.13 0.23C4.16 -0.48 6.61 -0.84 9.5 -0.84C12.39 -0.84 14.86 -0.48 16.88 0.23C18.9 0.94 19.91 1.8 19.91 2.81C19.91 3.75 19.01 4.56 17.22 5.25C15.42 5.95 13.19 6.34 10.54 6.43L10.54 10.62L12.26 10.62C12.67 10.62 13.06 10.74 13.41 10.97C13.77 11.21 14.03 11.52 14.18 11.92L15.75 15.83L13.66 15.83L12.41 12.7L6.58 12.7L5.33 15.83L3.25 15.83Z" fill="#F49B33" fill-opacity="1.000000" fill-rule="nonzero"/>
</svg>
